<svg height='100px' width='100px'  fill="#000000" xmlns="http://www.w3.org/2000/svg" xmlns:xlink="http://www.w3.org/1999/xlink" version="1.1" x="0px" y="0px" viewBox="0 0 105 105" enable-background="new 0 0 105 105" xml:space="preserve"><path d="M50.1,34.7c0,0-2.9-3.6-5.5-4.8c0,0,6.1-10.7,19-14.2c0,0,4.4,3.4,5.2,10.1c0,0,3.4,0.9,3.4,3.2L68.1,31  c0,0-7.8-1.5-8.8-1.2s-0.3,3.9,0.6,4.5c0,0-0.3,1.2-0.9,1.7c0,0,2,4.1,7.2,1.9c0,0-2.9,6.2,4.4,7.8c0,0,4.2-1.2,4.8-6.8  c0,0-4.9,0.4-5.4,1.1c0,0-1.1-0.8,2.9-1.5c0,0,0.6-0.6-1.6-2.5l1.5-0.1l0.4-4.2c0,0,9.2,2.1,11.5,9.2c0,0,5.1,14.7-6.2,46.5  c0,0-7.5,1.5-12.5-0.3c0,0-0.3-4.6,0.4-5.2l3.3-1.9c0,0-6.5-11.4-4.5-13.5c0,0,1.9-1.8,2.4-2.9c0,0-2.8,1.4-3.9,1.4  c0,0-1.3-5.2-3.8-8.9c0,0,6,25,3.5,31.9c0,0-16.8,4.8-15.9-2.3c0,0-0.1-2.6,2.5-4.8c0,0-4.6-5.2-4.8-5.9c0,0-3.8-2.1-1-10.7  s0.1-0.2,0.1-0.2s-19.1-17.5-6.8-31.3C37.5,32.8,42.4,27,50.1,34.7z"></path><path d="M60.7,32h2.6h6.9l1.8-0.8c0,0-0.8,2.8-1.2,3c0,0-2.2,0.1-3.4-0.7c0,0-2.3,1.8-3,1.9C64.4,35.4,61,33.9,60.7,32z"></path><path fill="#000000" d="M77.7,28.6"></path><path d="M68.3,34.8l0.6,1.4c0,0,0.5,0.8-0.6,0.8h-0.8v-1.8c0,0,0.4-0.4,0.6-0.4"></path><path d="M68.8,34.8l0.9,1.6l1.2-0.2C70.9,36.2,70,34.9,68.8,34.8z"></path><path d="M33.4,51.2c0,0,4.5,9.2,9,13.1l-0.7,5.8c0,0-2.3-0.6-2.5-0.4s-6.4,12.4-6.3,13.1c0,0,2.1,0.9,2.1,1.6l0.2,2.1  c0,0-11.1,1.1-14.3,0c0,0-3.4-3.8-0.7-12c0,0,4.8-5.4,4.9-7.2c0,0,0.9-3.1-0.6-6.9C24.4,60.2,22.1,50.4,33.4,51.2z"></path><path d="M41.9,71.6c0,0-0.1,3.4,6.1,8.9c0,0-2.8,3.9-2.2,5.1l-2.8-0.4c0,0-1.9-6-1.9-6.6c0,0,1.4-1.3,1.6-2c0,0-5-3-3.1-5  C40.1,71.3,41.9,71.3,41.9,71.6z"></path></svg>