<?xml version="1.0" standalone="no"?>
<!DOCTYPE svg PUBLIC "-//W3C//DTD SVG 20010904//EN"
 "http://www.w3.org/TR/2001/REC-SVG-20010904/DTD/svg10.dtd">
<svg version="1.0" xmlns="http://www.w3.org/2000/svg"
 width="700.000000pt" height="700.000000pt" viewBox="0 0 700.000000 700.000000"
 preserveAspectRatio="xMidYMid meet">
<metadata>
Created by potrace 1.11, written by Peter Selinger 2001-2013
</metadata>
<g transform="translate(0.000000,700.000000) scale(0.100000,-0.100000)"
fill="#000000" stroke="none">
<path d="M4119 5916 c-123 -43 -275 -109 -334 -147 -25 -16 -48 -29 -51 -29
-11 0 -180 -116 -252 -173 -172 -136 -334 -306 -455 -478 -26 -37 -47 -71 -47
-78 0 -6 15 -18 33 -27 49 -25 100 -66 212 -171 11 -10 38 -38 60 -62 39 -43
38 -43 -25 10 -277 232 -552 253 -750 60 -108 -106 -233 -331 -256 -461 -3
-14 -7 -32 -9 -40 -17 -61 -25 -233 -14 -315 20 -144 24 -165 59 -277 96 -300
313 -639 608 -946 36 -38 51 -60 47 -72 -18 -57 -44 -161 -49 -195 -4 -23 -9
-52 -11 -65 -7 -35 -7 -158 0 -205 14 -91 51 -174 99 -220 17 -17 40 -44 51
-59 24 -34 165 -209 174 -216 3 -3 32 -35 64 -73 l59 -67 -47 -52 c-104 -116
-147 -282 -102 -390 19 -45 82 -92 151 -114 71 -22 279 -29 407 -14 138 17
136 16 199 29 85 16 96 18 170 36 3 1 30 7 62 14 56 12 56 12 67 59 33 141 35
426 6 662 -2 19 -7 60 -10 90 -3 30 -10 87 -16 125 -5 39 -12 88 -15 110 -2
22 -11 78 -19 125 -7 47 -16 101 -19 120 -7 45 -10 59 -51 278 -19 101 -37
187 -39 190 -2 4 -7 23 -10 42 -3 19 -19 98 -35 175 -16 77 -28 141 -26 143 6
6 76 -126 120 -226 44 -101 115 -304 115 -330 0 -22 69 -8 168 35 46 19 85 33
87 31 7 -6 -33 -58 -99 -128 -31 -34 -61 -72 -66 -85 -12 -31 -5 -116 15 -195
33 -127 170 -439 274 -623 27 -48 27 -53 -6 -70 -16 -8 -65 -36 -110 -62 -75
-43 -84 -51 -94 -89 -12 -42 -17 -291 -7 -302 3 -3 41 -14 84 -25 156 -39 373
-43 638 -13 116 13 103 -3 178 220 72 214 158 505 207 699 31 124 95 407 104
460 39 231 64 388 72 465 3 30 8 66 10 80 2 14 6 61 10 105 3 44 8 109 11 145
11 149 4 548 -11 629 -1 9 -6 41 -10 71 -32 256 -93 395 -238 541 -129 130
-316 236 -534 304 l-41 12 -6 -41 c-5 -39 -19 -197 -19 -223 0 -7 -6 -14 -14
-14 -7 -1 -17 -3 -23 -4 -5 -1 -22 -3 -36 -4 -25 -1 -25 -2 21 -53 76 -85 79
-112 12 -123 -88 -15 -185 -63 -159 -79 5 -3 35 3 68 13 32 10 82 21 109 25
54 6 124 15 167 21 30 3 30 0 2 -109 -33 -132 -137 -267 -244 -318 -52 -25
-55 -25 -104 -11 -172 51 -272 159 -280 301 -2 40 16 155 29 186 7 17 6 18
-11 11 -44 -19 -153 -36 -199 -32 -98 10 -185 57 -236 128 l-21 31 27 54 28
55 -22 40 c-32 56 -42 94 -46 170 -4 75 6 98 46 103 40 4 189 -13 336 -39 48
-9 104 -18 123 -21 19 -3 52 -9 72 -14 34 -7 51 -1 173 58 124 61 135 69 135
93 0 48 -58 110 -145 155 l-80 41 -12 69 c-22 130 -79 274 -156 391 -54 84
-163 203 -186 202 -9 0 -59 -15 -112 -33z"/>
<path d="M4740 4893 c-53 -24 -58 -24 -372 -25 -175 -1 -318 -5 -318 -9 0 -17
19 -55 38 -74 31 -33 91 -85 97 -85 2 0 27 -13 53 -30 27 -16 54 -30 60 -30 6
0 53 28 104 63 87 58 96 61 120 49 33 -15 119 -32 168 -32 28 0 39 5 48 23 15
30 63 169 60 172 -2 1 -28 -9 -58 -22z"/>
<path d="M4518 4669 c-14 -8 -18 -24 -18 -73 l0 -63 34 -1 c18 -1 41 5 52 12
17 13 17 16 -6 75 -25 62 -32 68 -62 50z"/>
<path d="M4592 4673 c43 -92 52 -102 77 -96 14 3 31 6 38 6 20 0 15 14 -14 43
-35 33 -111 68 -101 47z"/>
<path d="M2000 3579 c-196 -31 -333 -154 -369 -329 -21 -104 -15 -245 15 -317
41 -98 55 -282 30 -401 -22 -104 -66 -175 -256 -412 -65 -81 -80 -106 -98
-170 -11 -41 -23 -94 -27 -117 -3 -23 -8 -57 -11 -75 -8 -59 -6 -192 6 -261
13 -86 34 -149 71 -213 28 -49 31 -52 91 -65 101 -22 517 -18 812 7 84 7 85 7
80 48 -2 20 -6 52 -8 71 -6 51 -31 80 -96 111 -42 20 -51 32 -39 53 5 9 20 45
35 81 21 54 316 653 359 728 22 40 28 42 104 26 40 -8 75 -14 77 -12 4 5 11
49 19 118 12 108 25 215 30 236 4 16 -11 38 -58 85 -34 35 -84 91 -110 124
-26 33 -52 65 -57 72 -60 73 -264 406 -340 556 l-35 68 -90 -3 c-49 -1 -110
-5 -135 -9z"/>
<path d="M2651 2227 c-84 -42 -28 -171 121 -280 37 -27 68 -55 68 -62 0 -13
-35 -59 -78 -104 -18 -18 -22 -29 -16 -55 13 -61 115 -391 123 -399 5 -5 21
-10 37 -12 16 -3 54 -8 85 -13 l57 -9 5 48 c6 49 50 144 110 238 l34 53 -96
97 c-140 140 -228 261 -276 378 -13 33 -25 71 -27 84 -2 13 -7 30 -11 37 -11
16 -104 16 -136 -1z"/>
</g>
</svg>
